<svg version="1.1" id="Layer_1" xmlns="http://www.w3.org/2000/svg" xmlns:xlink="http://www.w3.org/1999/xlink" x="0px" y="0px"
	 width="100%" viewBox="0 0 128 128" enable-background="new 0 0 128 128" xml:space="preserve">
<path fill="#020202" opacity="1.000000" stroke="none" 
	d="
M68.000000,129.000000 
	C45.333332,129.000000 23.166666,129.000000 1.000000,129.000000 
	C1.000000,86.333336 1.000000,43.666668 1.000000,1.000000 
	C43.666668,1.000000 86.333336,1.000000 129.000000,1.000000 
	C129.000000,43.666668 129.000000,86.333336 129.000000,129.000000 
	C108.833336,129.000000 88.666664,129.000000 68.000000,129.000000 
M79.064552,29.894196 
	C82.845383,32.588619 89.858757,32.961319 95.004807,29.770992 
	C89.575920,29.473833 85.486412,29.249985 80.955963,29.002001 
	C80.955963,26.130737 81.130226,23.658045 80.865509,21.233280 
	C80.767136,20.332218 79.640388,19.543427 78.438850,18.444544 
	C77.848061,18.477234 77.257271,18.509922 75.918701,18.547970 
	C75.404594,21.965118 74.890488,25.382267 74.387451,28.725822 
	C70.578323,28.725822 66.998680,28.725822 63.182922,28.725822 
	C63.106094,27.007982 63.012993,25.552290 62.983318,24.095304 
	C62.950520,22.485046 62.975830,20.873608 62.975830,19.262682 
	C62.631245,19.070507 62.286659,18.878330 61.942074,18.686155 
	C61.277554,19.420099 60.613033,20.154041 59.200577,20.649553 
	C54.225365,17.158348 48.753391,19.392902 43.487743,19.357004 
	C43.058556,19.354080 42.264542,20.234512 42.248589,20.724302 
	C42.138721,24.097046 42.190819,27.475067 42.190819,30.851389 
	C42.780998,30.835922 43.371178,30.820456 43.961357,30.804989 
	C43.961357,27.618017 43.961357,24.431046 43.961357,20.926495 
	C46.017323,21.072447 47.405651,21.171005 49.106098,21.291719 
	C49.106098,24.758045 49.106098,27.876593 49.106098,32.039497 
	C54.080936,28.934130 50.453972,24.089735 52.856323,21.043695 
	C54.016117,21.105816 55.279987,21.173508 57.279663,21.280611 
	C57.279663,25.000975 57.279663,28.448055 57.279663,31.895136 
	C57.573849,31.902456 57.868038,31.909775 58.162224,31.917093 
	C58.782104,30.888971 59.401981,29.860849 60.702534,29.160351 
	C64.740448,33.343250 72.741295,33.313770 77.658470,29.053034 
	C78.012703,29.109615 78.366943,29.166197 79.064552,29.894196 
M65.814240,46.722694 
	C62.515640,46.685093 58.768356,48.707718 55.150742,44.354778 
	C59.077732,44.016850 61.856472,43.777729 64.635216,43.538612 
	C64.628510,43.308331 64.621803,43.078053 64.615097,42.847771 
	C62.287212,42.038311 59.959328,41.228851 57.291965,40.301346 
	C55.737076,42.097076 54.094143,43.994488 52.367130,45.989002 
	C56.866100,51.093342 62.052757,49.769924 67.943558,49.113701 
	C68.440384,47.462418 68.937202,45.811134 69.412193,44.232422 
	C72.038040,43.893597 74.540405,43.570705 78.404404,43.072117 
	C71.262329,39.506657 67.462257,40.874996 65.814240,46.722694 
M42.930500,88.823822 
	C43.979797,89.546333 44.965454,90.740234 46.091766,90.892296 
	C48.370785,91.199974 50.726082,90.942665 53.978798,90.985710 
	C64.307678,90.957611 74.636551,90.929504 85.865204,91.011307 
	C88.578766,90.953529 91.292328,90.895744 94.891869,90.965240 
	C97.278816,90.910484 99.665771,90.855728 102.894470,90.943779 
	C104.516418,90.943779 106.138359,90.943779 107.860641,90.943779 
	C107.958298,89.372223 108.029266,88.230087 108.745804,87.355217 
	C113.074051,89.408447 115.749336,88.465691 115.893677,84.184654 
	C116.211014,74.772476 115.992134,65.342232 115.992134,54.593990 
	C112.441185,55.462753 109.690163,56.135811 106.303535,56.492111 
	C102.938011,56.213306 99.572495,55.934502 95.356468,55.574196 
	C93.956078,55.751892 92.555687,55.929588 90.275581,55.893917 
	C85.048019,55.698326 79.821190,55.380962 74.592644,55.349571 
	C71.054214,55.328323 67.513367,55.709370 63.316944,55.849663 
	C62.881275,55.821796 62.445602,55.793930 61.499954,55.283905 
	C59.951191,55.757275 58.402428,56.230644 56.143661,56.415615 
	C54.092270,56.271317 52.040878,56.127022 49.193653,55.916042 
	C48.129120,55.911259 47.064590,55.906479 45.681400,55.522690 
	C45.114876,55.645729 44.548351,55.768764 43.345379,56.477882 
	C43.200386,65.362625 43.055393,74.247368 42.859165,83.715004 
	C42.873444,84.104515 42.887718,84.494026 42.888508,85.599861 
	C42.916893,86.075340 42.945278,86.550827 42.959110,87.503906 
	C42.959110,87.503906 42.972794,87.981537 42.930500,88.823822 
M77.129288,110.999359 
	C74.875603,110.999359 72.621910,110.999359 69.992203,110.999359 
	C69.992203,106.728210 70.087021,103.101158 69.921539,99.486023 
	C69.883057,98.645226 68.958549,97.844978 68.441719,97.026077 
	C67.845230,97.783463 66.808304,98.502083 66.737572,99.305748 
	C66.550148,101.435036 66.780518,103.601097 66.156929,105.957077 
	C64.018051,103.239609 61.879177,100.522141 59.040894,96.916061 
	C58.306610,97.717789 57.098621,99.036736 55.466358,100.818916 
	C54.395657,100.818916 52.447781,100.818916 51.083778,100.818916 
	C49.977551,99.304901 49.151886,98.174881 48.326225,97.044853 
	C47.876381,98.097481 47.436543,99.154533 46.972660,100.200943 
	C46.723598,100.762764 46.581882,101.532890 46.138836,101.823517 
	C40.797016,105.327652 43.775208,110.379692 44.068733,114.973427 
	C45.391846,113.572960 46.067314,111.892906 45.914215,110.292099 
	C45.521938,106.190247 46.966618,104.822006 51.201511,104.910736 
	C61.220749,105.120659 61.225250,104.905861 62.672714,115.752045 
	C63.945915,114.580696 64.923874,113.913872 65.578957,113.012413 
	C66.227104,112.120499 66.549362,110.991753 67.034676,110.711319 
	C69.117439,116.290680 73.798714,114.949257 78.868713,114.964882 
	C83.542908,115.585922 87.404449,114.349075 90.217491,110.742958 
	C91.813919,112.103271 93.410355,113.463585 95.926590,114.973297 
	C99.576012,114.985626 103.232185,115.143082 106.873169,114.973869 
	C111.516121,114.758102 114.047966,111.194748 112.934341,106.771683 
	C110.507339,97.132202 110.250977,96.933716 99.975380,97.009117 
	C98.651993,97.018822 97.329254,97.116409 95.275650,97.016983 
	C93.520691,98.394783 91.765732,99.772583 89.292686,100.739059 
	C88.666702,99.458733 88.040718,98.178406 87.414734,96.898087 
	C86.867409,97.127975 86.320076,97.357872 85.772743,97.587761 
	C85.772743,101.960220 85.772743,106.332687 85.772743,111.164017 
	C82.904877,111.164017 80.461853,111.164017 77.129288,110.999359 
M88.970795,42.224300 
	C80.648872,39.664997 77.483444,41.345566 78.415947,48.076183 
	C81.352272,48.548248 84.356026,49.031158 87.359787,49.514065 
	C87.110954,49.070793 86.862122,48.627525 86.613289,48.184258 
	C87.388412,47.440643 88.163544,46.697033 89.523315,46.388332 
	C92.841827,50.479176 97.045036,50.806110 102.273972,49.287659 
	C102.004738,47.182755 101.751022,45.199196 101.546562,43.600712 
	C99.633820,44.917828 98.357361,46.388397 96.845741,46.693375 
	C94.788445,47.108444 92.034286,47.617943 91.865143,43.897064 
	C91.847656,43.512482 90.297768,43.197559 88.970795,42.224300 
M19.159798,81.260399 
	C18.206230,83.141014 14.812611,85.734100 19.104307,86.761780 
	C24.538952,88.063156 30.036661,86.729774 35.695557,83.662628 
	C31.295267,83.019417 27.700428,82.493935 24.229174,81.266319 
	C29.046618,78.137100 26.684473,74.598633 24.373957,71.097389 
	C35.449200,70.856682 35.449200,70.856682 34.957615,66.194099 
	C28.759901,66.194099 22.550423,66.194099 16.245958,66.194099 
	C21.492306,77.445793 21.492306,77.445793 19.159798,81.260399 
M31.078430,36.407578 
	C35.760414,34.274700 36.345928,30.185608 34.839394,26.199947 
	C34.032806,24.066063 31.252745,21.396013 29.225481,21.274927 
	C25.117935,21.029591 23.723814,24.698885 22.959782,28.335257 
	C22.613295,29.984341 21.923330,31.561258 21.282290,33.493031 
	C14.405569,29.370518 21.947906,25.927877 20.917604,22.360151 
	C15.545233,20.521730 15.276213,25.239449 14.143880,27.962753 
	C12.815166,31.158360 16.110466,37.557869 19.097868,37.305702 
	C21.514780,37.101688 24.178589,34.695339 25.873085,32.577858 
	C27.406794,30.661297 27.777510,27.814060 28.994585,24.457205 
	C31.496925,28.163843 31.703529,30.452848 29.487768,33.003258 
	C28.667461,33.947456 28.686575,35.620937 28.278364,37.807564 
	C26.440084,38.574051 24.619261,39.939659 22.760225,39.993835 
	C17.348635,40.151524 15.578300,41.554878 15.444329,46.897545 
	C15.378917,49.506199 15.433010,52.117851 15.433010,54.737740 
	C22.400291,54.737740 28.784454,54.737740 35.131340,54.737740 
	C36.235725,45.172081 36.213451,45.087696 31.078430,36.407578 
M34.575264,98.461823 
	C34.917934,97.079582 35.260601,95.697342 35.729851,93.804520 
	C30.049036,93.804520 25.269680,93.804520 20.350178,93.804520 
	C20.169561,91.902802 20.019226,90.319885 19.805384,88.068321 
	C18.134531,88.572464 15.742744,88.899261 15.715844,89.363197 
	C15.439557,94.127884 15.546444,98.914787 15.546444,103.810257 
	C17.173859,103.810257 18.433258,103.810257 19.780331,103.810257 
	C20.055393,102.048134 20.300777,100.476128 20.593302,98.602142 
	C25.122942,98.602142 29.432442,98.602142 34.575264,98.461823 
M112.240402,28.179182 
	C112.636665,29.516581 113.032928,30.853981 113.429199,32.191380 
	C113.848518,32.059460 114.267845,31.927540 114.687164,31.795620 
	C114.687164,27.418409 114.687164,23.041199 114.687164,18.958267 
	C107.718918,18.958267 101.114227,18.958267 94.509537,18.958267 
	C95.166031,20.222235 95.927139,20.737162 96.606117,20.645266 
	C101.447304,19.990021 102.219490,22.670759 101.872574,26.626839 
	C101.716202,28.410147 102.071136,30.238293 102.194077,32.046093 
	C105.825180,28.168207 100.193924,17.705317 112.239449,21.174154 
	C112.239449,22.974409 112.239449,25.109070 112.240402,28.179182 
M35.278675,115.072968 
	C36.225597,112.137436 35.441269,110.769203 32.079227,110.906830 
	C27.105780,111.110413 22.118246,110.960663 17.136990,110.998413 
	C16.683220,111.001846 16.231489,111.274101 15.408149,111.542244 
	C15.540749,112.932365 15.671124,114.299171 15.801197,115.662804 
	C22.404867,115.662804 28.534018,115.662804 35.278675,115.072968 
M15.601271,109.244202 
	C22.106655,109.609688 28.612041,109.975174 35.596874,110.367592 
	C35.436943,108.093750 35.340076,106.716537 35.226372,105.099960 
	C29.319662,105.099960 23.834238,104.930283 18.377398,105.249390 
	C17.340458,105.310028 16.416689,107.305908 15.601271,109.244202 
z"/>
<path fill="#6A614A" opacity="1.000000" stroke="none" 
	d="
M106.939148,56.808861 
	C109.690163,56.135811 112.441185,55.462753 115.992134,54.593990 
	C115.992134,65.342232 116.211014,74.772476 115.893677,84.184654 
	C115.749336,88.465691 113.074051,89.408447 108.267868,86.906067 
	C105.867035,83.055641 103.944130,79.654350 102.059906,75.886253 
	C103.062195,72.979332 104.025803,70.439232 104.862297,67.658073 
	C104.827232,65.594910 104.919273,63.772789 105.078568,61.608360 
	C105.743584,59.780315 106.341370,58.294590 106.939148,56.808861 
z"/>
<path fill="#D2D2D2" opacity="1.000000" stroke="none" 
	d="
M30.543875,36.952763 
	C36.213451,45.087696 36.235725,45.172081 35.131340,54.737740 
	C28.784454,54.737740 22.400291,54.737740 15.433010,54.737740 
	C15.433010,52.117851 15.378917,49.506199 15.444329,46.897545 
	C15.578300,41.554878 17.348635,40.151524 22.760225,39.993835 
	C24.619261,39.939659 26.440084,38.574051 28.576456,37.336922 
	C29.430990,36.895111 29.987432,36.923935 30.543875,36.952763 
M27.076351,48.255287 
	C28.137581,49.009911 29.198812,49.764534 30.260042,50.519157 
	C30.714279,48.405796 31.351778,46.304432 31.491495,44.170479 
	C31.525629,43.649139 29.988214,42.782406 29.054420,42.547741 
	C28.620838,42.438778 27.583954,43.362885 27.384340,43.996338 
	C27.046135,45.069584 27.155073,46.283737 27.076351,48.255287 
M19.853174,44.470284 
	C19.502913,46.407375 19.152649,48.344467 18.802387,50.281555 
	C19.328445,50.596466 19.854506,50.911377 20.380564,51.226288 
	C21.447819,50.247982 23.162264,49.422764 23.437967,48.257221 
	C23.908285,46.268940 23.973839,43.709957 19.853174,44.470284 
z"/>
<path fill="#8D8F8F" opacity="1.000000" stroke="none" 
	d="
M105.011322,61.950672 
	C104.919273,63.772789 104.827232,65.594910 104.474358,67.813751 
	C102.674873,68.616089 101.150444,69.300224 99.595131,69.379623 
	C92.415863,69.746147 85.227989,69.944313 77.790115,69.897797 
	C74.718178,68.782707 71.899330,67.972656 69.380493,66.994301 
	C72.649208,64.816048 75.617897,62.806095 78.504593,60.851654 
	C87.021881,69.091133 87.673164,68.925255 90.820953,58.056400 
	C91.003181,57.427193 91.047043,56.757912 91.155304,56.107285 
	C92.555687,55.929588 93.956078,55.751892 95.787689,55.971825 
	C98.392494,59.422752 100.311035,62.877838 105.011322,61.950672 
z"/>
<path fill="#5F4C36" opacity="1.000000" stroke="none" 
	d="
M90.715439,56.000599 
	C91.047043,56.757912 91.003181,57.427193 90.820953,58.056400 
	C87.673164,68.925255 87.021881,69.091133 78.504593,60.851654 
	C75.617897,62.806095 72.649208,64.816048 68.974304,66.951370 
	C67.489059,65.777718 65.780746,64.155876 66.099533,63.238205 
	C67.198952,60.073322 65.550468,58.084618 63.973598,55.910484 
	C67.513367,55.709370 71.054214,55.328323 74.592644,55.349571 
	C79.821190,55.380962 85.048019,55.698326 90.715439,56.000599 
z"/>
<path fill="#EBEBEB" opacity="1.000000" stroke="none" 
	d="
M30.811153,36.680168 
	C29.987432,36.923935 29.430990,36.895111 28.598705,36.914051 
	C28.686575,35.620937 28.667461,33.947456 29.487768,33.003258 
	C31.703529,30.452848 31.496925,28.163843 28.994585,24.457205 
	C27.777510,27.814060 27.406794,30.661297 25.873085,32.577858 
	C24.178589,34.695339 21.514780,37.101688 19.097868,37.305702 
	C16.110466,37.557869 12.815166,31.158360 14.143880,27.962753 
	C15.276213,25.239449 15.545233,20.521730 20.917604,22.360151 
	C21.947906,25.927877 14.405569,29.370518 21.282290,33.493031 
	C21.923330,31.561258 22.613295,29.984341 22.959782,28.335257 
	C23.723814,24.698885 25.117935,21.029591 29.225481,21.274927 
	C31.252745,21.396013 34.032806,24.066063 34.839394,26.199947 
	C36.345928,30.185608 35.760414,34.274700 30.811153,36.680168 
z"/>
<path fill="#ECECEC" opacity="1.000000" stroke="none" 
	d="
M96.006210,97.173294 
	C97.329254,97.116409 98.651993,97.018822 99.975380,97.009117 
	C110.250977,96.933716 110.507339,97.132202 112.934341,106.771683 
	C114.047966,111.194748 111.516121,114.758102 106.873169,114.973869 
	C103.232185,115.143082 99.576012,114.985626 95.506134,114.583427 
	C95.392265,113.186783 95.698845,112.180000 96.463737,111.098991 
	C100.079208,111.012093 103.257599,111.206154 106.383064,110.885071 
	C107.634377,110.756523 108.769150,109.493576 109.956970,108.746994 
	C108.699501,107.835526 107.562103,106.527519 106.157440,106.102203 
	C103.843399,105.401566 101.356468,105.271942 98.942413,104.901619 
	C98.923203,104.347885 98.903992,103.794144 98.884781,103.240410 
	C101.677040,102.623062 104.469299,102.005707 107.261559,101.388359 
	C107.277054,100.872604 107.292549,100.356842 107.308044,99.841087 
	C103.540359,99.841087 99.772682,99.841087 96.004288,99.507614 
	C96.004448,98.507187 96.005325,97.840240 96.006210,97.173294 
z"/>
<path fill="#A9A9A9" opacity="1.000000" stroke="none" 
	d="
M67.014557,109.966881 
	C66.549362,110.991753 66.227104,112.120499 65.578957,113.012413 
	C64.923874,113.913872 63.945915,114.580696 62.672714,115.752045 
	C61.225250,104.905861 61.220749,105.120659 51.201511,104.910736 
	C46.966618,104.822006 45.521938,106.190247 45.914215,110.292099 
	C46.067314,111.892906 45.391846,113.572960 44.068733,114.973427 
	C43.775208,110.379692 40.797016,105.327652 46.138836,101.823517 
	C46.581882,101.532890 46.723598,100.762764 46.972660,100.200943 
	C47.436543,99.154533 47.876381,98.097481 48.326225,97.044853 
	C49.151886,98.174881 49.977551,99.304901 51.083778,100.818916 
	C52.447781,100.818916 54.395657,100.818916 55.466358,100.818916 
	C57.098621,99.036736 58.306610,97.717789 59.040894,96.916061 
	C61.879177,100.522141 64.018051,103.239609 66.609070,106.266434 
	C67.045670,107.706154 67.030113,108.836517 67.014557,109.966881 
z"/>
<path fill="#A1A1A1" opacity="1.000000" stroke="none" 
	d="
M34.158604,98.531982 
	C29.432442,98.602142 25.122942,98.602142 20.593302,98.602142 
	C20.300777,100.476128 20.055393,102.048134 19.780331,103.810257 
	C18.433258,103.810257 17.173859,103.810257 15.546444,103.810257 
	C15.546444,98.914787 15.439557,94.127884 15.715844,89.363197 
	C15.742744,88.899261 18.134531,88.572464 19.805384,88.068321 
	C20.019226,90.319885 20.169561,91.902802 20.350178,93.804520 
	C25.269680,93.804520 30.049036,93.804520 35.729851,93.804520 
	C35.260601,95.697342 34.917934,97.079582 34.158604,98.531982 
z"/>
<path fill="#C9C9C9" opacity="1.000000" stroke="none" 
	d="
M19.766150,80.912766 
	C21.492306,77.445793 21.492306,77.445793 16.245958,66.194099 
	C22.550423,66.194099 28.759901,66.194099 34.957615,66.194099 
	C35.449200,70.856682 35.449200,70.856682 24.373957,71.097389 
	C26.684473,74.598633 29.046618,78.137100 23.788994,81.618958 
	C22.154594,81.618645 20.960373,81.265709 19.766150,80.912766 
z"/>
<path fill="#848484" opacity="1.000000" stroke="none" 
	d="
M63.645271,55.880074 
	C65.550468,58.084618 67.198952,60.073322 66.099533,63.238205 
	C65.780746,64.155876 67.489059,65.777718 68.674286,67.119675 
	C71.899330,67.972656 74.718178,68.782707 77.571274,70.179886 
	C75.911682,71.043320 74.162384,71.735802 72.534279,71.518829 
	C67.399963,70.834587 62.298248,69.872871 57.218739,68.846222 
	C56.473156,68.695534 55.916660,67.609306 55.510788,66.692047 
	C56.516106,63.313461 57.283306,60.198769 58.404648,57.040169 
	C59.842506,56.586193 60.926220,56.176128 62.009933,55.766064 
	C62.445602,55.793930 62.881275,55.821796 63.645271,55.880074 
z"/>
<path fill="#909191" opacity="1.000000" stroke="none" 
	d="
M84.965431,90.901398 
	C74.636551,90.929504 64.307678,90.957611 53.472099,90.643814 
	C53.002037,89.888641 53.038670,89.475357 53.322952,88.885201 
	C53.768852,88.137886 53.967102,87.567451 54.471493,86.950378 
	C55.473564,85.924286 56.169491,84.944824 57.141754,83.976357 
	C57.602367,83.993027 57.786648,83.998711 58.218246,84.289413 
	C61.311359,85.051994 64.157150,85.529572 67.001625,86.003265 
	C67.000305,85.999390 66.992043,86.001221 67.169083,86.315933 
	C70.799553,89.667755 74.343346,90.095879 78.004448,86.999680 
	C77.999695,86.999390 77.995392,87.007843 78.401031,87.008438 
	C79.890472,86.983559 80.974274,86.958092 82.422836,86.938904 
	C83.516518,86.975410 84.245430,87.005638 84.987305,87.017677 
	C85.000267,86.999481 84.964294,87.026306 84.954964,87.414215 
	C84.952232,88.835220 84.958832,89.868309 84.965431,90.901398 
z"/>
<path fill="#463629" opacity="1.000000" stroke="none" 
	d="
M46.000057,55.901699 
	C47.064590,55.906479 48.129120,55.911259 49.605202,56.417656 
	C50.019367,61.366405 50.021984,65.813538 50.043320,70.632141 
	C50.042000,72.014404 50.021954,73.025215 50.014389,74.495056 
	C50.067223,78.927711 50.107582,82.901329 49.721027,86.903992 
	C46.000305,87.307953 45.990143,85.134010 45.998085,82.807564 
	C46.028709,73.839043 46.004089,64.870338 46.000057,55.901699 
z"/>
<path fill="#B9B9B9" opacity="1.000000" stroke="none" 
	d="
M112.239929,27.711456 
	C112.239449,25.109070 112.239449,22.974409 112.239449,21.174154 
	C100.193924,17.705317 105.825180,28.168207 102.194077,32.046093 
	C102.071136,30.238293 101.716202,28.410147 101.872574,26.626839 
	C102.219490,22.670759 101.447304,19.990021 96.606117,20.645266 
	C95.927139,20.737162 95.166031,20.222235 94.509537,18.958267 
	C101.114227,18.958267 107.718918,18.958267 114.687164,18.958267 
	C114.687164,23.041199 114.687164,27.418409 114.687164,31.795620 
	C114.267845,31.927540 113.848518,32.059460 113.429199,32.191380 
	C113.032928,30.853981 112.636665,29.516581 112.239929,27.711456 
z"/>
<path fill="#71706F" opacity="1.000000" stroke="none" 
	d="
M102.052719,90.800964 
	C99.665771,90.855728 97.278816,90.910484 94.436539,90.535492 
	C92.322426,86.782776 90.663643,83.459816 89.354492,80.026596 
	C90.834290,77.598000 91.884827,75.190193 95.044899,75.520050 
	C97.377319,80.854492 99.715019,85.827736 102.052719,90.800964 
z"/>
<path fill="#B0B0B0" opacity="1.000000" stroke="none" 
	d="
M60.021858,28.832726 
	C59.401981,29.860849 58.782104,30.888971 58.162224,31.917093 
	C57.868038,31.909775 57.573849,31.902456 57.279663,31.895136 
	C57.279663,28.448055 57.279663,25.000975 57.279663,21.280611 
	C55.279987,21.173508 54.016117,21.105816 52.856323,21.043695 
	C50.453972,24.089735 54.080936,28.934130 49.106098,32.039497 
	C49.106098,27.876593 49.106098,24.758045 49.106098,21.291719 
	C47.405651,21.171005 46.017323,21.072447 43.961357,20.926495 
	C43.961357,24.431046 43.961357,27.618017 43.961357,30.804989 
	C43.371178,30.820456 42.780998,30.835922 42.190819,30.851389 
	C42.190819,27.475067 42.138721,24.097046 42.248589,20.724302 
	C42.264542,20.234512 43.058556,19.354080 43.487743,19.357004 
	C48.753391,19.392902 54.225365,17.158348 59.588181,21.212563 
	C59.991146,24.127954 60.006500,26.480341 60.021858,28.832726 
z"/>
<path fill="#999999" opacity="1.000000" stroke="none" 
	d="
M34.970924,115.367889 
	C28.534018,115.662804 22.404867,115.662804 15.801197,115.662804 
	C15.671124,114.299171 15.540749,112.932365 15.408149,111.542244 
	C16.231489,111.274101 16.683220,111.001846 17.136990,110.998413 
	C22.118246,110.960663 27.105780,111.110413 32.079227,110.906830 
	C35.441269,110.769203 36.225597,112.137436 34.970924,115.367889 
z"/>
<path fill="#9F9F9F" opacity="1.000000" stroke="none" 
	d="
M15.520988,108.826538 
	C16.416689,107.305908 17.340458,105.310028 18.377398,105.249390 
	C23.834238,104.930283 29.319662,105.099960 35.226372,105.099960 
	C35.340076,106.716537 35.436943,108.093750 35.596874,110.367592 
	C28.612041,109.975174 22.106655,109.609688 15.520988,108.826538 
z"/>
<path fill="#8E8F8F" opacity="1.000000" stroke="none" 
	d="
M102.473595,90.872375 
	C99.715019,85.827736 97.377319,80.854492 95.437012,75.423096 
	C97.896675,75.394310 99.958954,75.823692 102.021225,76.253067 
	C103.944130,79.654350 105.867035,83.055641 107.945091,86.772438 
	C108.029266,88.230087 107.958298,89.372223 107.860641,90.943779 
	C106.138359,90.943779 104.516418,90.943779 102.473595,90.872375 
z"/>
<path fill="#C5C5C5" opacity="1.000000" stroke="none" 
	d="
M60.362194,28.996538 
	C60.006500,26.480341 59.991146,24.127954 59.962151,21.331776 
	C60.613033,20.154041 61.277554,19.420099 61.942074,18.686155 
	C62.286659,18.878330 62.631245,19.070507 62.975830,19.262682 
	C62.975830,20.873608 62.950520,22.485046 62.983318,24.095304 
	C63.012993,25.552290 63.106094,27.007982 63.182922,28.725822 
	C66.998680,28.725822 70.578323,28.725822 74.387451,28.725822 
	C74.890488,25.382267 75.404594,21.965118 76.409592,18.955526 
	C76.974464,22.608673 77.048431,25.854265 77.122398,29.099855 
	C72.741295,33.313770 64.740448,33.343250 60.362194,28.996538 
z"/>
<path fill="#BABABA" opacity="1.000000" stroke="none" 
	d="
M88.938667,45.953423 
	C88.163544,46.697033 87.388412,47.440643 86.613289,48.184258 
	C86.862122,48.627525 87.110954,49.070793 87.359787,49.514065 
	C84.356026,49.031158 81.352272,48.548248 78.415947,48.076183 
	C77.483444,41.345566 80.648872,39.664997 89.187195,42.931496 
	C89.248619,44.410267 89.093643,45.181843 88.938667,45.953423 
z"/>
<path fill="#D9D9D9" opacity="1.000000" stroke="none" 
	d="
M89.955254,110.115585 
	C87.404449,114.349075 83.542908,115.585922 78.436707,114.533112 
	C78.009415,113.122231 78.014114,112.143127 78.018814,111.164017 
	C80.461853,111.164017 82.904877,111.164017 85.772743,111.164017 
	C85.772743,106.332687 85.772743,101.960220 85.772743,97.587761 
	C86.320076,97.357872 86.867409,97.127975 87.414734,96.898087 
	C88.040718,98.178406 88.666702,99.458733 89.648300,101.389191 
	C89.987694,104.731407 89.971474,107.423492 89.955254,110.115585 
z"/>
<path fill="#6B614C" opacity="1.000000" stroke="none" 
	d="
M50.024597,70.260674 
	C50.021984,65.813538 50.019367,61.366405 50.003120,56.450996 
	C52.040878,56.127022 54.092270,56.271317 56.797844,56.655647 
	C57.651520,56.958481 57.851013,57.021278 58.050507,57.084076 
	C57.283306,60.198769 56.516106,63.313461 55.182404,66.812828 
	C53.085468,68.218559 51.555035,69.239616 50.024597,70.260674 
z"/>
<path fill="#6C6E6D" opacity="1.000000" stroke="none" 
	d="
M89.004852,80.136848 
	C90.663643,83.459816 92.322426,86.782776 93.993546,90.471848 
	C91.292328,90.895744 88.578766,90.953529 85.415314,90.956352 
	C84.958832,89.868309 84.952232,88.835220 85.079346,87.357674 
	C85.133484,86.954102 85.053917,86.994987 84.974342,87.035873 
	C84.245430,87.005638 83.516518,86.975410 82.402725,86.703918 
	C82.017838,86.462669 81.987740,85.990616 82.149002,85.700745 
	C82.848640,84.022774 83.387016,82.634682 84.295113,81.159836 
	C86.111511,80.761009 87.558182,80.448929 89.004852,80.136848 
z"/>
<path fill="#C5C5C5" opacity="1.000000" stroke="none" 
	d="
M77.574051,111.081688 
	C78.014114,112.143127 78.009415,113.122231 78.011864,114.468452 
	C73.798714,114.949257 69.117439,116.290680 67.024612,110.339096 
	C67.030113,108.836517 67.045670,107.706154 66.952934,106.164154 
	C66.780518,103.601097 66.550148,101.435036 66.737572,99.305748 
	C66.808304,98.502083 67.845230,97.783463 68.441719,97.026077 
	C68.958549,97.844978 69.883057,98.645226 69.921539,99.486023 
	C70.087021,103.101158 69.992203,106.728210 69.992203,110.999359 
	C72.621910,110.999359 74.875603,110.999359 77.574051,111.081688 
z"/>
<path fill="#32281F" opacity="1.000000" stroke="none" 
	d="
M45.840729,55.712196 
	C46.004089,64.870338 46.028709,73.839043 45.998085,82.807564 
	C45.990143,85.134010 46.000305,87.307953 50.117031,86.944199 
	C52.015083,86.969254 53.090218,86.983131 54.165352,86.997009 
	C53.967102,87.567451 53.768852,88.137886 52.944931,88.715469 
	C49.203777,88.475586 46.088284,88.228561 42.972794,87.981537 
	C42.972794,87.981537 42.959110,87.503906 43.190102,87.099808 
	C43.248066,86.091644 43.075031,85.487595 42.901997,84.883537 
	C42.887718,84.494026 42.873444,84.104515 43.180931,83.105179 
	C43.662403,73.627495 43.822113,64.759651 43.981827,55.891804 
	C44.548351,55.768764 45.114876,55.645729 45.840729,55.712196 
z"/>
<path fill="#757575" opacity="1.000000" stroke="none" 
	d="
M67.077072,49.232925 
	C62.052757,49.769924 56.866100,51.093342 52.367130,45.989002 
	C54.094143,43.994488 55.737076,42.097076 57.291965,40.301346 
	C59.959328,41.228851 62.287212,42.038311 64.615097,42.847771 
	C64.621803,43.078053 64.628510,43.308331 64.635216,43.538612 
	C61.856472,43.777729 59.077732,44.016850 55.150742,44.354778 
	C58.768356,48.707718 62.515640,46.685093 66.275497,46.932076 
	C66.850197,47.838612 66.963631,48.535770 67.077072,49.232925 
z"/>
<path fill="#C2C2C2" opacity="1.000000" stroke="none" 
	d="
M19.462975,81.086578 
	C20.960373,81.265709 22.154594,81.618645 23.727201,81.970024 
	C27.700428,82.493935 31.295267,83.019417 35.695557,83.662628 
	C30.036661,86.729774 24.538952,88.063156 19.104307,86.761780 
	C14.812611,85.734100 18.206230,83.141014 19.462975,81.086578 
z"/>
<path fill="#E6E6E6" opacity="1.000000" stroke="none" 
	d="
M90.086372,110.429276 
	C89.971474,107.423492 89.987694,104.731407 90.007339,101.594849 
	C91.765732,99.772583 93.520691,98.394783 95.640930,97.095139 
	C96.005325,97.840240 96.004448,98.507187 95.593857,99.599564 
	C94.457596,102.908951 93.509071,105.766861 93.165398,108.695747 
	C93.082672,109.400780 95.005119,110.341103 96.005424,111.173225 
	C95.698845,112.180000 95.392265,113.186783 95.046234,114.508728 
	C93.410355,113.463585 91.813919,112.103271 90.086372,110.429276 
z"/>
<path fill="#B4B4B4" opacity="1.000000" stroke="none" 
	d="
M78.982605,18.703436 
	C79.640388,19.543427 80.767136,20.332218 80.865509,21.233280 
	C81.130226,23.658045 80.955963,26.130737 80.955963,29.002001 
	C85.486412,29.249985 89.575920,29.473833 95.004807,29.770992 
	C89.858757,32.961319 82.845383,32.588619 78.940308,29.084423 
	C78.871582,25.084246 78.927094,21.893841 78.982605,18.703436 
z"/>
<path fill="#6A5E58" opacity="1.000000" stroke="none" 
	d="
M105.078568,61.608360 
	C100.311035,62.877838 98.392494,59.422752 96.212936,56.012577 
	C99.572495,55.934502 102.938011,56.213306 106.621338,56.650486 
	C106.341370,58.294590 105.743584,59.780315 105.078568,61.608360 
z"/>
<path fill="#373737" opacity="1.000000" stroke="none" 
	d="
M89.230988,46.170876 
	C89.093643,45.181843 89.248619,44.410267 89.431259,43.244499 
	C90.297768,43.197559 91.847656,43.512482 91.865143,43.897064 
	C92.034286,47.617943 94.788445,47.108444 96.845741,46.693375 
	C98.357361,46.388397 99.633820,44.917828 101.546562,43.600712 
	C101.751022,45.199196 102.004738,47.182755 102.273972,49.287659 
	C97.045036,50.806110 92.841827,50.479176 89.230988,46.170876 
z"/>
<path fill="#7E7E7E" opacity="1.000000" stroke="none" 
	d="
M67.510315,49.173313 
	C66.963631,48.535770 66.850197,47.838612 66.586914,46.625683 
	C67.462257,40.874996 71.262329,39.506657 78.404404,43.072117 
	C74.540405,43.570705 72.038040,43.893597 69.412193,44.232422 
	C68.937202,45.811134 68.440384,47.462418 67.510315,49.173313 
z"/>
<path fill="#4B3D2E" opacity="1.000000" stroke="none" 
	d="
M42.951645,88.402679 
	C46.088284,88.228561 49.203777,88.475586 52.697285,88.892349 
	C53.038670,89.475357 53.002037,89.888641 53.007668,90.610123 
	C50.726082,90.942665 48.370785,91.199974 46.091766,90.892296 
	C44.965454,90.740234 43.979797,89.546333 42.951645,88.402679 
z"/>
<path fill="#463629" opacity="1.000000" stroke="none" 
	d="
M43.663605,56.184845 
	C43.822113,64.759651 43.662403,73.627495 43.206543,82.813728 
	C43.055393,74.247368 43.200386,65.362625 43.663605,56.184845 
z"/>
<path fill="#636363" opacity="1.000000" stroke="none" 
	d="
M78.710724,18.573990 
	C78.927094,21.893841 78.871582,25.084246 78.768623,28.748714 
	C78.366943,29.166197 78.012703,29.109615 77.390434,29.076445 
	C77.048431,25.854265 76.974464,22.608673 76.783485,18.952847 
	C77.257271,18.509922 77.848061,18.477234 78.710724,18.573990 
z"/>
<path fill="#32281F" opacity="1.000000" stroke="none" 
	d="
M58.404652,57.040169 
	C57.851013,57.021278 57.651520,56.958481 57.152847,56.799847 
	C58.402428,56.230644 59.951191,55.757275 61.754944,55.524986 
	C60.926220,56.176128 59.842506,56.586193 58.404652,57.040169 
z"/>
<path fill="#463629" opacity="1.000000" stroke="none" 
	d="
M42.895252,85.241699 
	C43.075031,85.487595 43.248066,86.091644 43.197380,86.861008 
	C42.945278,86.550827 42.916893,86.075340 42.895252,85.241699 
z"/>
<path fill="#0F0E0C" opacity="1.000000" stroke="none" 
	d="
M89.354492,80.026596 
	C87.558182,80.448929 86.111511,80.761009 83.915337,81.088074 
	C79.987190,79.897079 76.808540,78.691101 73.280434,77.352539 
	C69.812592,81.861206 64.691368,81.295204 59.466927,80.615944 
	C58.018757,80.427666 56.489922,80.859848 54.724884,80.809433 
	C52.968418,78.419678 51.485165,76.227844 50.001911,74.036018 
	C50.021954,73.025215 50.042000,72.014404 50.043324,70.632141 
	C51.555035,69.239616 53.085468,68.218559 54.944286,67.076721 
	C55.916660,67.609306 56.473156,68.695534 57.218739,68.846222 
	C62.298248,69.872871 67.399963,70.834587 72.534279,71.518829 
	C74.162384,71.735802 75.911682,71.043320 77.824364,70.484924 
	C85.227989,69.944313 92.415863,69.746147 99.595131,69.379623 
	C101.150444,69.300224 102.674873,68.616089 104.601471,68.054810 
	C104.025803,70.439232 103.062195,72.979332 102.059906,75.886261 
	C99.958954,75.823692 97.896675,75.394310 95.442291,75.061882 
	C91.884827,75.190193 90.834290,77.598000 89.354492,80.026596 
z"/>
<path fill="#303030" opacity="1.000000" stroke="none" 
	d="
M27.076200,47.846970 
	C27.155073,46.283737 27.046135,45.069584 27.384340,43.996338 
	C27.583954,43.362885 28.620838,42.438778 29.054420,42.547741 
	C29.988214,42.782406 31.525629,43.649139 31.491495,44.170479 
	C31.351778,46.304432 30.714279,48.405796 30.260044,50.519157 
	C29.198812,49.764534 28.137581,49.009911 27.076200,47.846970 
z"/>
<path fill="#222222" opacity="1.000000" stroke="none" 
	d="
M20.190580,44.249336 
	C23.973839,43.709957 23.908285,46.268940 23.437967,48.257221 
	C23.162264,49.422764 21.447819,50.247982 20.380564,51.226288 
	C19.854506,50.911377 19.328445,50.596466 18.802387,50.281555 
	C19.152649,48.344467 19.502913,46.407375 20.190580,44.249336 
z"/>
<path fill="#020202" opacity="1.000000" stroke="none" 
	d="
M96.463737,111.098991 
	C95.005119,110.341103 93.082672,109.400780 93.165398,108.695747 
	C93.509071,105.766861 94.457596,102.908951 95.594574,99.933044 
	C99.772682,99.841087 103.540359,99.841087 107.308044,99.841087 
	C107.292549,100.356842 107.277054,100.872604 107.261559,101.388359 
	C104.469299,102.005707 101.677040,102.623062 98.884781,103.240410 
	C98.903992,103.794144 98.923203,104.347885 98.942413,104.901619 
	C101.356468,105.271942 103.843399,105.401566 106.157440,106.102203 
	C107.562103,106.527519 108.699501,107.835526 109.956970,108.746994 
	C108.769150,109.493576 107.634377,110.756523 106.383064,110.885071 
	C103.257599,111.206154 100.079208,111.012093 96.463737,111.098991 
z"/>
<path fill="#8D8E8E" opacity="1.000000" stroke="none" 
	d="
M54.998093,81.007370 
	C56.489922,80.859848 58.018757,80.427666 59.466927,80.615944 
	C64.691368,81.295204 69.812592,81.861206 73.280434,77.352539 
	C76.808540,78.691101 79.987190,79.897079 83.545616,81.174820 
	C83.387016,82.634682 82.848640,84.022774 81.785126,85.698601 
	C80.171799,86.326843 79.083595,86.667343 77.995392,87.007843 
	C77.995392,87.007843 77.999695,86.999390 77.639320,86.986137 
	C73.849976,86.648994 70.421013,86.325111 66.992043,86.001221 
	C66.992043,86.001221 67.000305,85.999390 66.758499,85.735657 
	C63.668106,84.982742 60.819515,84.493576 57.970928,84.004402 
	C57.786648,83.998711 57.602367,83.993027 57.049217,83.700790 
	C56.119598,82.611938 55.558846,81.809654 54.998093,81.007370 
z"/>
<path fill="#675D47" opacity="1.000000" stroke="none" 
	d="
M54.724884,80.809433 
	C55.558846,81.809654 56.119598,82.611938 56.772888,83.689789 
	C56.169491,84.944824 55.473564,85.924286 54.471497,86.950378 
	C53.090218,86.983131 52.015083,86.969254 50.543941,86.915161 
	C50.107582,82.901329 50.067223,78.927711 50.014389,74.495056 
	C51.485165,76.227844 52.968418,78.419678 54.724884,80.809433 
z"/>
<path fill="#808080" opacity="1.000000" stroke="none" 
	d="
M67.169083,86.315933 
	C70.421013,86.325111 73.849976,86.648994 77.644073,86.986435 
	C74.343346,90.095879 70.799553,89.667755 67.169083,86.315933 
z"/>
<path fill="#808080" opacity="1.000000" stroke="none" 
	d="
M58.218246,84.289413 
	C60.819515,84.493576 63.668106,84.982742 66.759819,85.739532 
	C64.157150,85.529572 61.311359,85.051994 58.218246,84.289413 
z"/>
<path fill="#808080" opacity="1.000000" stroke="none" 
	d="
M78.401031,87.008438 
	C79.083595,86.667343 80.171799,86.326843 81.623871,85.988480 
	C81.987740,85.990616 82.017838,86.462669 82.037956,86.697647 
	C80.974274,86.958092 79.890472,86.983559 78.401031,87.008438 
z"/>
<path fill="#808080" opacity="1.000000" stroke="none" 
	d="
M84.987305,87.017677 
	C85.053917,86.994987 85.133484,86.954102 85.088676,86.969757 
	C84.964294,87.026306 85.000267,86.999481 84.987305,87.017677 
z"/>
</svg>